<?xml version="1.0" encoding="UTF-8"?>
<svg version="1.1" xmlns="http://www.w3.org/2000/svg" width="256" height="256">
<path d="M0 0 C1.04878578 -0.00262848 1.04878578 -0.00262848 2.11875916 -0.00531006 C4.44125821 -0.00972872 6.76368174 -0.00679024 9.08618164 -0.00341797 C10.6942191 -0.00409108 12.30225647 -0.00506117 13.91029358 -0.00631714 C17.28558315 -0.00779419 20.66084631 -0.0056396 24.03613281 -0.00097656 C28.36860479 0.00471617 32.70101477 0.00144467 37.03348446 -0.00454903 C40.35596689 -0.00815834 43.67843457 -0.00701426 47.00091743 -0.00442123 C48.59855723 -0.00375275 50.19619835 -0.00457765 51.79383659 -0.00690079 C54.02535436 -0.00943286 56.25677104 -0.00557866 58.48828125 0 C59.75989609 0.00079559 61.03151093 0.00159119 62.34165955 0.00241089 C65.30883789 0.12939453 65.30883789 0.12939453 67.30883789 1.12939453 C66.85809048 12.98405132 64.10349346 21.19729118 55.80493164 29.86376953 C46.6251375 38.19597705 37.63811863 40.61399069 25.48852539 40.37548828 C14.0209624 39.48794962 6.3445556 32.97491143 -0.92944336 24.50048828 C-6.23614443 17.3582099 -8.02985178 9.93532597 -7.69116211 1.12939453 C-5.80177011 -0.75999747 -2.5094859 0.00157106 0 0 Z " fill="purple" transform="translate(165.691162109375,120.87060546875)"/>
<path d="M0 0 C1.05141426 -0.00262848 1.05141426 -0.00262848 2.12406921 -0.00531006 C4.4459377 -0.00971913 6.76773032 -0.00679422 9.08959961 -0.00341797 C10.69860346 -0.0040912 12.30760721 -0.00506139 13.91661072 -0.00631714 C17.29012011 -0.00779277 20.66360305 -0.00564359 24.03710938 -0.00097656 C28.37077212 0.00472522 32.704373 0.00143803 37.03803349 -0.00454903 C40.36047333 -0.00815437 43.68289839 -0.00701626 47.00533867 -0.00442123 C48.60380498 -0.00375213 50.20227261 -0.00457982 51.80073738 -0.00690079 C54.02995511 -0.00942738 56.25907114 -0.00558687 58.48828125 0 C60.39451012 0.00119339 60.39451012 0.00119339 62.33924866 0.00241089 C65.17944336 0.12939453 65.17944336 0.12939453 66.17944336 1.12939453 C67.11422558 12.11308563 62.3757871 20.79953463 55.58569336 29.07080078 C49.78276582 35.40748817 41.92951115 39.7242407 33.29663086 40.33251953 C20.64802701 40.51539091 11.35709585 37.78434053 1.98022461 29.09033203 C-5.93950884 20.80462199 -8.3912601 12.41989348 -8.82055664 1.12939453 C-5.88338718 -0.3391902 -3.2790842 0.00205158 0 0 Z " fill="purple" transform="translate(31.820556640625,120.87060546875)"/>
<path d="M0 0 C62.04 0 124.08 0 188 0 C188 3.3 188 6.6 188 10 C125.96 10 63.92 10 0 10 C0 6.7 0 3.4 0 0 Z " fill="purple" transform="translate(34,228)"/>
<path d="M0 0 C46.2 0 92.4 0 140 0 C140 2.97 140 5.94 140 9 C93.8 9 47.6 9 0 9 C0 6.03 0 3.06 0 0 Z " fill="purple" transform="translate(58,213)"/>
<path d="M0 0 C17.49426611 33.51022582 17.49426611 33.51022582 25.125 50.0625 C25.87765137 51.69131104 25.87765137 51.69131104 26.64550781 53.35302734 C30 60.72689852 30 60.72689852 30 63 C27.03 63 24.06 63 21 63 C20.48050781 61.96101563 19.96101563 60.92203125 19.42578125 59.8515625 C19.09030273 59.1807666 18.75482422 58.5099707 18.40917969 57.81884766 C17.67363353 56.34742785 16.93861362 54.87574488 16.20410156 53.40380859 C14.64648957 50.28377293 13.08529495 47.16660208 11.49609375 44.0625 C9.53045823 40.2174951 7.75193696 36.42486574 6.25 32.375 C3.35419577 24.84590901 -0.95997845 17.95781489 -5 11 C-5.66 11 -6.32 11 -7 11 C-7.34144043 11.65782471 -7.68288086 12.31564941 -8.03466797 12.9934082 C-11.44303073 19.55836019 -14.85583628 26.12098454 -18.27246094 32.68164062 C-19.35476198 34.76058858 -20.43626861 36.83995051 -21.51660156 38.91992188 C-22.84119309 41.46913575 -24.16995019 44.01613078 -25.5 46.5625 C-25.88397949 47.30346924 -26.26795898 48.04443848 -26.66357422 48.80786133 C-27.7521557 50.88586779 -28.86667751 52.94608382 -30 55 C-30.40887451 55.7532959 -30.81774902 56.5065918 -31.23901367 57.28271484 C-31.86900269 58.3783374 -31.86900269 58.3783374 -32.51171875 59.49609375 C-32.88514404 60.15665771 -33.25856934 60.81722168 -33.64331055 61.49780273 C-35 63 -35 63 -37.08129883 63.50024414 C-39.3125 63.5 -39.3125 63.5 -43 63 C-42.33068964 59.90261722 -41.27925227 57.2449225 -39.91796875 54.38671875 C-39.48653564 53.47970215 -39.05510254 52.57268555 -38.6105957 51.63818359 C-38.14097412 50.66445801 -37.67135254 49.69073242 -37.1875 48.6875 C-36.70047607 47.67510254 -36.21345215 46.66270508 -35.71166992 45.61962891 C-30.79475724 35.46924055 -25.68655366 25.42842546 -20.33105469 15.50244141 C-19.12898899 13.24250498 -17.98425252 10.96315641 -16.8515625 8.66796875 C-16.21601334 7.46483693 -15.57821745 6.26288746 -14.9375 5.0625 C-14.43089844 4.06347656 -13.92429688 3.06445312 -13.40234375 2.03515625 C-9.47158098 -1.294807 -4.94018285 -0.38770517 0 0 Z " fill="purple" transform="translate(201,52)"/>
<path d="M0 0 C4.17956788 -1.12936377 6.82872248 -1.50061053 11 0 C15.37503752 5.10307642 18.08567789 11.11621568 21.05438232 17.11303711 C22.94372666 20.88318941 24.90242684 24.61784988 26.84765625 28.359375 C31.61443375 37.54796953 36.3247633 46.76451748 41 56 C41.4117749 56.75933838 41.8235498 57.51867676 42.24780273 58.30102539 C43 60 43 60 43 63 C37.89459644 63.69225811 37.89459644 63.69225811 35 63 C33.65237427 61.52238464 33.65237427 61.52238464 32.52783203 59.53979492 C32.1083429 58.81029633 31.68885376 58.08079773 31.25665283 57.32919312 C30.8419574 56.56055939 30.42726196 55.79192566 30 55 C29.60866882 54.27640289 29.21733765 53.55280579 28.81414795 52.80728149 C27.59842637 50.50466513 26.41647186 48.1872871 25.2421875 45.86328125 C24.81245636 45.02081345 24.38272522 44.17834564 23.93997192 43.31034851 C22.58154325 40.64613278 21.22794392 37.97950459 19.875 35.3125 C18.51426061 32.63512595 17.15245363 29.95830795 15.78860474 27.28251648 C14.94409607 25.62515753 14.10145125 23.96684712 13.26095581 22.30744934 C10.37572288 16.51064801 10.37572288 16.51064801 7 11 C6.34 11 5.68 11 5 11 C0.4520901 18.89691544 -4.04797947 26.72009517 -7.6875 35.0859375 C-9.37041862 38.82241754 -11.21358156 42.46848445 -13.0625 46.125 C-15.87058812 51.68758928 -18.54442267 57.27031957 -21 63 C-23.97 63 -26.94 63 -30 63 C-27.99040197 56.57345626 -25.55827278 50.64064433 -22.578125 44.609375 C-22.15505066 43.74290344 -21.73197632 42.87643188 -21.29608154 41.98370361 C-20.40447687 40.16052027 -19.51016843 38.33865691 -18.61328125 36.51806641 C-17.26191937 33.77420162 -15.919315 31.02619242 -14.578125 28.27734375 C-9.91179248 18.74145702 -5.14394341 9.28827146 0 0 Z " fill="purple" transform="translate(55,52)"/>
<path d="M0 0 C0 41.25 0 82.5 0 125 C-2.97 125 -5.94 125 -9 125 C-9 84.74 -9 44.48 -9 3 C-3 0 -3 0 0 0 Z " fill="purple" transform="translate(140,52)"/>
<path d="M0 0 C5 1 5 1 9 3 C9 43.26 9 83.52 9 125 C6.03 125 3.06 125 0 125 C0 83.75 0 42.5 0 0 Z " fill="purple" transform="translate(116,52)"/>
<path d="M0 0 C33.66 0 67.32 0 102 0 C102 2.97 102 5.94 102 9 C68.34 9 34.68 9 0 9 C0 6.03 0 3.06 0 0 Z " fill="purple" transform="translate(77,198)"/>
<path d="M0 0 C9.57 0 19.14 0 29 0 C29 24.09 29 48.18 29 73 C27.35 71.35 25.7 69.7 24 68 C23.0819458 67.15808105 22.1638916 66.31616211 21.21801758 65.44873047 C17.56788935 60.95070089 18.3859232 55.32051144 18.51171875 49.8203125 C18.51879349 48.6524118 18.52586823 47.48451111 18.53315735 46.28121948 C18.56107983 42.56182007 18.62381948 38.84394217 18.6875 35.125 C18.71258541 32.59898012 18.73539815 30.07293657 18.75585938 27.546875 C18.81090035 21.36399972 18.89716277 15.18225757 19 9 C12.73 9 6.46 9 0 9 C0 6.03 0 3.06 0 0 Z " fill="purple" transform="translate(210,33)"/>
<path d="M0 0 C9.57 0 19.14 0 29 0 C29 2.97 29 5.94 29 9 C22.73 9 16.46 9 10 9 C10.0314209 10.56886963 10.0628418 12.13773926 10.09521484 13.75415039 C10.20402482 19.58906421 10.27277509 25.42388881 10.32958984 31.25952148 C10.35971547 33.78246148 10.40062468 36.30529716 10.45263672 38.82788086 C10.52563162 42.4597348 10.55950049 46.09020121 10.5859375 49.72265625 C10.61690521 50.84583755 10.64787292 51.96901886 10.67977905 53.12623596 C10.68199159 58.30412976 10.63770483 61.95349791 7.21337891 66.01733398 C6.16693549 67.03750315 5.09400804 68.03101323 4 69 C2.68 70.32 1.36 71.64 0 73 C0 48.91 0 24.82 0 0 Z " fill="purple" transform="translate(17,33)"/>
<path d="M0 0 C0.33 0 0.66 0 1 0 C1 26.73 1 53.46 1 81 C-2.3 81 -5.6 81 -9 81 C-9.13943107 72.53296163 -9.24583667 64.06640817 -9.31087303 55.59850311 C-9.34209823 51.66584022 -9.38440549 47.73396655 -9.45263672 43.80175781 C-9.51815025 40.00210391 -9.55377223 36.20320579 -9.56926346 32.4030304 C-9.58029313 30.95815644 -9.60183207 29.51332078 -9.63438034 28.06877136 C-9.93080583 14.35932278 -9.93080583 14.35932278 -4.4750061 8.60559082 C-2.13793545 6.06161546 -1.20260732 3.20695287 0 0 Z " fill="purple" transform="translate(238,141)"/>
<path d="M0 0 C3.11773767 1.55886884 3.55237463 4.44208101 4.8046875 7.578125 C5.91984125 10.12099156 5.91984125 10.12099156 8.04632568 12.23722839 C10.45754699 15.64703611 10.48578641 17.48342683 10.45410156 21.6262207 C10.45468567 22.27068649 10.45526978 22.91515228 10.45587158 23.57914734 C10.45309954 25.69525272 10.42205361 27.80992405 10.390625 29.92578125 C10.38315937 31.39836355 10.37746796 32.87095583 10.37347412 34.34355164 C10.35824282 38.20878806 10.31898363 42.07341785 10.2746582 45.93841553 C10.23365082 49.88659459 10.2154515 53.83487222 10.1953125 57.78320312 C10.15248605 65.52241119 10.08426624 73.26112041 10 81 C6.7 81 3.4 81 0 81 C0 54.27 0 27.54 0 0 Z " fill="purple" transform="translate(17,141)"/>
<path d="M0 0 C3.87315013 2.34146677 6.26103071 4.36979143 8.72265625 8.20703125 C10.14478624 14.20029335 9.73348871 18.74456267 6.84765625 24.20703125 C1.51391923 30.57788381 1.51391923 30.57788381 -3.14453125 31.34765625 C-8.27976512 31.62938978 -12.32844062 31.62175058 -16.46484375 28.33203125 C-19.98469469 24.64866645 -22.28223587 20.88156193 -22.4921875 15.66015625 C-22.15157185 10.45485038 -20.92524414 6.88097117 -17.40234375 2.89453125 C-12.13010201 -1.40087382 -6.33426761 -2.91479306 0 0 Z M-11.27734375 9.95703125 C-13.04507649 13.00145985 -12.77058291 15.45763245 -12.40234375 18.89453125 C-11.42185437 20.9585581 -11.42185437 20.9585581 -9.40234375 21.89453125 C-6.28422892 22.2842956 -4.29214808 22.3987537 -1.52734375 20.83203125 C0.24038899 17.78760265 -0.03410459 15.33143005 -0.40234375 11.89453125 C-1.38283313 9.8305044 -1.38283313 9.8305044 -3.40234375 8.89453125 C-6.52045858 8.5047669 -8.51253942 8.3903088 -11.27734375 9.95703125 Z " fill="purple" transform="translate(134.40234375,16.10546875)"/>
<path d="M0 0 C24.75 0 49.5 0 75 0 C75 2.97 75 5.94 75 9 C72.29105233 9.08144943 69.58458737 9.14070614 66.875 9.1875 C65.73417969 9.22520508 65.73417969 9.22520508 64.5703125 9.26367188 C59.50264531 9.32920205 56.52786118 8.45126847 52 6 C45.78090226 5.17727441 39.8621938 5.83353708 34 8 C33.67 8.33 33.34 8.66 33 9 C30.70848583 9.08790975 28.41427476 9.10694038 26.12109375 9.09765625 C25.09110008 9.09553383 25.09110008 9.09553383 24.04029846 9.09336853 C21.83932199 9.08775479 19.63844591 9.07520007 17.4375 9.0625 C15.94856917 9.05748676 14.45963676 9.05292355 12.97070312 9.04882812 C9.31376925 9.03778093 5.65689442 9.02050713 2 9 C1.34 6.03 0.68 3.06 0 0 Z " fill="purple" transform="translate(148,17)"/>
<path d="M0 0 C24.75 0 49.5 0 75 0 C74.34 2.97 73.68 5.94 73 9 C68.64007129 9.04945386 64.28029138 9.08574488 59.92016602 9.10986328 C58.43706417 9.11991821 56.95398212 9.13356404 55.47094727 9.15087891 C53.33865469 9.17515006 51.20662431 9.18648799 49.07421875 9.1953125 C47.14968872 9.21102295 47.14968872 9.21102295 45.1862793 9.22705078 C42 9 42 9 39 7 C35.51288927 6.09485978 32.15823868 5.81120406 28.5625 5.75 C27.65628906 5.72421875 26.75007813 5.6984375 25.81640625 5.671875 C22.8909531 5.83713275 22.8909531 5.83713275 20.20703125 7.50390625 C16.02953443 9.45272632 12.66156332 9.33743726 8.125 9.1875 C7.34125 9.17396484 6.5575 9.16042969 5.75 9.14648438 C3.83303218 9.11141789 1.91642249 9.05762072 0 9 C0 6.03 0 3.06 0 0 Z " fill="purple" transform="translate(33,17)"/>
<path d="M0 0 C21.12 0 42.24 0 64 0 C64 2.97 64 5.94 64 9 C42.88 9 21.76 9 0 9 C0 6.03 0 3.06 0 0 Z " fill="purple" transform="translate(96,184)"/>
<path d="M0 0 C1.12591553 0.00523682 2.25183105 0.01047363 3.41186523 0.01586914 C4.62680664 0.0190918 5.84174805 0.02231445 7.09350586 0.02563477 C8.37290039 0.03401367 9.65229492 0.04239258 10.97045898 0.05102539 C12.2537207 0.05553711 13.53698242 0.06004883 14.85913086 0.06469727 C18.04211921 0.07652994 21.22501661 0.09301471 24.40795898 0.11352539 C24.40795898 3.41352539 24.40795898 6.71352539 24.40795898 10.11352539 C14.83795898 10.11352539 5.26795898 10.11352539 -4.59204102 10.11352539 C-3.48527676 0.15264705 -3.48527676 0.15264705 0 0 Z " fill="purple" transform="translate(154.592041015625,31.886474609375)"/>
<path d="M0 0 C8.91 0 17.82 0 27 0 C29 5 29 5 29 10 C19.43 10 9.86 10 0 10 C0 6.7 0 3.4 0 0 Z " fill="purple" transform="translate(77,32)"/>
<path d="M0 0 C2.85695513 1.71417308 3.01592889 3.05628208 3.9375 6.3125 C4.01608403 10.94895792 3.18463609 12.6561321 0 16 C-4.02278753 17.24340706 -6.02687998 17.44425045 -9.875 15.6875 C-12 14 -12 14 -13 12 C-13.46090535 4.85596708 -13.46090535 4.85596708 -11.6875 1.5625 C-8.02890822 -1.82508498 -4.56441173 -0.97808823 0 0 Z " fill="purple" transform="translate(200,29)"/>
<path d="M0 0 C1.8046875 0.59765625 1.8046875 0.59765625 3.8046875 2.16015625 C5.25515738 5.69567658 5.49214835 8.83593226 4.8046875 12.59765625 C2.76163058 15.66224163 1.36388948 16.41918753 -2.1328125 17.53515625 C-5.84573662 17.61093021 -7.32331853 16.91120695 -10.1953125 14.59765625 C-12.28138176 11.94265901 -12.19410705 10.53015121 -12.1328125 7.09765625 C-11.1953125 3.59765625 -11.1953125 3.59765625 -9.1328125 1.09765625 C-5.66884509 -0.67117817 -3.75332059 -0.72941891 0 0 Z " fill="purple" transform="translate(64.1953125,28.40234375)"/>
<path d="M0 0 C3.63 0 7.26 0 11 0 C11 3.3 11 6.6 11 10 C7.37 10 3.74 10 0 10 C0 6.7 0 3.4 0 0 Z " fill="purple" transform="translate(228,17)"/>
<path d="M0 0 C3.63 0 7.26 0 11 0 C11 3.3 11 6.6 11 10 C7.37 10 3.74 10 0 10 C0 6.7 0 3.4 0 0 Z " fill="purple" transform="translate(17,17)"/>
<path d="M0 0 C3.3 0 6.6 0 10 0 C10 3.3 10 6.6 10 10 C6.7 10 3.4 10 0 10 C0 6.7 0 3.4 0 0 Z " fill="purple" transform="translate(229,228)"/>
<path d="M0 0 C3.3 0 6.6 0 10 0 C10 3.3 10 6.6 10 10 C6.7 10 3.4 10 0 10 C0 6.7 0 3.4 0 0 Z " fill="purple" transform="translate(17,228)"/>
</svg>
